<?xml version="1.0" encoding="UTF-8" standalone="no"?>
<!-- Created with Inkscape (http://www.inkscape.org/) -->

<svg
   width="40.642593mm"
   height="33.046921mm"
   viewBox="0 0 40.642593 33.046921"
   version="1.1"
   id="svg1"
   xml:space="preserve"
   inkscape:export-filename="logo.png"
   inkscape:export-xdpi="319.97958"
   inkscape:export-ydpi="319.97958"
   inkscape:version="1.3.2 (091e20ef0f, 2023-11-25)"
   sodipodi:docname="logo.svg"
   xmlns:inkscape="http://www.inkscape.org/namespaces/inkscape"
   xmlns:sodipodi="http://sodipodi.sourceforge.net/DTD/sodipodi-0.dtd"
   xmlns="http://www.w3.org/2000/svg"
   xmlns:svg="http://www.w3.org/2000/svg"><sodipodi:namedview
     id="namedview1"
     pagecolor="#505050"
     bordercolor="#eeeeee"
     borderopacity="1"
     inkscape:showpageshadow="0"
     inkscape:pageopacity="0"
     inkscape:pagecheckerboard="0"
     inkscape:deskcolor="#505050"
     inkscape:document-units="mm"
     inkscape:zoom="0.71179153"
     inkscape:cx="76.567363"
     inkscape:cy="58.303588"
     inkscape:window-width="1920"
     inkscape:window-height="1008"
     inkscape:window-x="1920"
     inkscape:window-y="0"
     inkscape:window-maximized="1"
     inkscape:current-layer="layer1" /><defs
     id="defs1" /><g
     inkscape:label="Layer 1"
     inkscape:groupmode="layer"
     id="layer1"
     transform="translate(-84.68809,-133.15663)"><path
       d="m 123.38271,150.95532 c -0.0923,-9.82803 -8.2931,-17.79869 -18.37479,-17.79869 -10.078858,0 -18.280941,7.97066 -18.373369,17.79869 -1.816241,1.27745 -2.462565,3.99345 -1.506185,6.41209 0.467149,1.18237 0.942587,2.36333 1.459336,3.51952 1.192001,2.66376 4.026606,3.73169 6.117166,2.34816 0.378954,-0.2508 0.491949,-0.50574 0.268718,-0.99769 -0.325219,-0.71243 -0.701427,-1.39869 -1.008732,-2.11804 -1.145152,-2.67751 -2.155261,-5.3855 -2.593481,-8.25712 -0.111623,-0.72347 -0.527791,-1.19062 -1.152031,-1.36701 0.136426,-3.49194 1.391814,-6.70278 3.432704,-9.30592 0.577391,0.54983 1.48276,0.58427 2.097369,0.0496 3.103351,-2.72161 7.102475,-4.21958 11.269485,-4.21958 4.16595,0 8.16892,1.49931 11.2709,4.22099 0.29628,0.25907 0.66283,0.38586 1.02665,0.38586 0.38446,0 0.76345,-0.1502 1.05971,-0.42717 2.03673,2.60311 3.28937,5.80989 3.42579,9.29745 -0.62424,0.17639 -1.04041,0.64354 -1.15203,1.36702 -0.4396,2.87182 -1.4497,5.57812 -2.59348,8.25712 -0.3073,0.71934 -0.68488,1.4056 -1.00873,2.11804 -0.22462,0.49195 -0.11163,0.74827 0.26871,0.99769 2.0905,1.38493 4.92514,0.31557 6.11717,-2.34816 0.51675,-1.15478 0.99081,-2.33715 1.45934,-3.51952 0.95221,-2.41985 0.3073,-5.1361 -1.51032,-6.4135 z"
       id="path1"
       style="stroke-width:0.352778" /><path
       d="m 101.18941,140.95037 c 1.25746,-0.42623 2.60563,-0.65671 4.00658,-0.65671 1.58628,0 3.10305,0.29605 4.49758,0.83606 l -0.8322,0.8322 c -0.0337,0.0337 -0.0791,0.0492 -0.12632,0.0453 l -0.97395,-0.0887 c -0.48794,-0.0444 -0.94501,0.23722 -1.12727,0.69141 l -0.26133,0.65187 c -0.19865,0.49757 -0.0125,1.06556 0.4407,1.34809 l 0.54386,0.3404 c 0.29892,0.18611 0.67019,0.21986 0.9971,0.0887 l 1.0993,-0.43972 c 0.0299,-0.0125 0.0617,-0.0145 0.0926,-0.008 l 3.03666,0.69045 c 0.27868,0.0627 0.56991,0.0164 0.81484,-0.13114 l 1.12246,-0.67309 c 0.50819,0.57183 0.96528,1.19091 1.36352,1.84858 l -2.01444,0.88137 c -0.028,0.0125 -0.0607,0.0164 -0.0916,0.0115 l -2.23141,-0.39345 c -0.0424,-0.008 -0.08,-0.0318 -0.10415,-0.0675 l -0.59787,-0.89584 c -0.21697,-0.32594 -0.59208,-0.513 -0.98457,-0.48988 l -2.05493,0.12054 c -0.29988,0.0174 -0.58052,0.15719 -0.77529,0.3838 l -0.60847,0.71069 c -0.18515,0.21504 -0.28061,0.49373 -0.26518,0.77723 l 0.12439,2.35388 c 0.0222,0.42332 0.2835,0.79653 0.67503,0.96044 l 2.45704,1.03566 c 0.20347,0.0849 0.42913,0.10897 0.64706,0.0656 l 1.16102,-0.23336 c 0.0367,-0.006 0.0743,-7e-4 0.10703,0.0174 l 0.89391,0.49661 c 0.0502,0.028 0.081,0.081 0.081,0.1379 v 1.05301 c 0,0.17936 0.0434,0.3539 0.12632,0.51204 l 1.75119,3.35857 c 0.0125,0.0232 0.0183,0.0482 0.0183,0.0743 v 1.19091 c 0,0.26326 0.0955,0.51881 0.26614,0.71939 l 0.79461,0.92862 0.21697,-0.18611 c -2.25167,3.26698 -6.01728,5.40777 -10.2843,5.40777 -6.893882,0 -12.481122,-5.58823 -12.481122,-12.48112 0,-1.35294 0.215039,-2.65476 0.613305,-3.8755 l 0.536161,1.07232 c 0.148502,0.29604 0.377995,0.5429 0.660555,0.71358 l 1.116658,0.67019 c 0.334622,0.1996 0.71358,0.21214 1.035662,0.0849 l -0.445513,0.38188 c -0.43586,0.37414 -0.659592,0.94019 -0.595951,1.51203 l 0.054,0.48214 c 0.027,0.24975 0.108968,0.48892 0.23722,0.70203 l 0.549664,0.91608 c 0.225647,0.378 0.589187,0.65572 1.012532,0.77626 l 0.743476,0.21215 c 0.360642,0.10415 0.598839,0.44455 0.569907,0.81869 l -0.216005,2.9315 c -0.02122,0.27868 0.02604,0.55641 0.135967,0.81388 l 0.68176,1.5911 c 0.14561,0.33944 0.428159,0.59981 0.777224,0.71551 0.83605,0.27868 1.69815,-0.34329 1.69815,-1.22273 v -0.32786 c 0,-0.15332 0.0607,-0.29989 0.16874,-0.40886 l 0.90259,-0.90257 c 0.32593,-0.32593 0.50819,-0.7676 0.50819,-1.22854 v -0.0887 c 0,-0.19865 0.0752,-0.38958 0.21022,-0.53616 l 1.34135,-1.45321 c 0.19768,-0.21504 0.33847,-0.47541 0.40885,-0.75794 l 0.081,-0.32786 c 0.23433,-0.93538 -0.47444,-1.84278 -1.43874,-1.84278 -0.19672,0 -0.37799,-0.10897 -0.47156,-0.28157 l -0.4619,-0.8592 c -0.30376,-0.56315 -0.89102,-0.9132 -1.53035,-0.9132 h -1.714533 c -0.243004,0 -0.465756,-0.13693 -0.574721,-0.35583 -0.40404,-0.80712 -1.377024,-1.09641 -2.140768,-0.70876 0.132112,-0.16394 0.220827,-0.36933 0.246863,-0.60269 0.03954,-0.35583 -0.08389,-0.70877 -0.336548,-0.96141 l -0.100279,-0.10107 c -0.09836,-0.0974 -0.154289,-0.23047 -0.154289,-0.3703 v -0.0502 c 0,-0.31823 0.232399,-0.59015 0.545789,-0.63932 l 1.771436,-0.27869 c 0.25844,-0.0405 0.503378,-0.13982 0.71842,-0.28737 l 1.58145,-1.09449 c 0.21215,-0.1485 0.38957,-0.34232 0.51977,-0.56702 l 0.85436,-1.49467 c 0.10608,-0.18805 0.28543,-0.32209 0.49373,-0.37415 l 0.34329,-0.0868 c 0.40019,-0.10029 0.72612,-0.38958 0.86979,-0.77626 0.27676,-0.73577 -0.18417,-1.54 -0.95658,-1.67597 l -1.4995,-0.26518 c -0.10704,-0.0183 -0.21022,-0.0607 -0.30087,-0.12054 z m 14.66708,18.31992 c 1.15524,-1.89198 1.82062,-4.1147 1.82062,-6.4947 0,-2.01927 -0.48022,-3.92759 -1.3317,-5.61515 l -2.09448,0.91705 c -0.19961,0.0877 -0.42044,0.11379 -0.63548,0.0752 l -2.23141,-0.39345 c -0.297,-0.0521 -0.56026,-0.22468 -0.72805,-0.47541 l -0.59788,-0.89584 c -0.0309,-0.0453 -0.0839,-0.0733 -0.14078,-0.0694 l -2.05494,0.12053 c -0.0434,0.003 -0.0829,0.0222 -0.11089,0.054 l -0.60847,0.70974 c -0.027,0.0309 -0.0405,0.0713 -0.0386,0.11089 l 0.1244,2.35388 c 0.003,0.0607 0.0405,0.11475 0.0964,0.1379 l 2.45706,1.0347 c 0.0299,0.0125 0.0617,0.0164 0.0926,0.01 l 1.16102,-0.23337 c 0.25844,-0.0502 0.52458,-0.01 0.75409,0.11861 l 0.89391,0.49662 c 0.35198,0.19479 0.56895,0.56509 0.56895,0.96624 v 1.05302 c 0,0.026 0.006,0.0502 0.0183,0.0743 l 1.75119,3.35856 c 0.0829,0.15815 0.12633,0.33367 0.12633,0.51205 v 1.19091 c 0,0.0367 0.0135,0.0743 0.0386,0.10222 z m -6.32486,-16.63804 1.09642,-1.09642 c 1.19091,0.57665 2.27577,1.33558 3.21785,2.24104 l -0.93443,0.56122 c -0.0357,0.0212 -0.0762,0.027 -0.11571,0.0183 l -3.03666,-0.69045 c -0.21986,-0.0492 -0.4484,-0.0318 -0.6567,0.0521 l -1.09834,0.43971 c -0.0472,0.0183 -0.10029,0.0135 -0.14272,-0.0125 l -0.5429,-0.3404 c -0.0656,-0.0405 -0.0916,-0.12054 -0.0627,-0.19287 l 0.26037,-0.65186 c 0.026,-0.0656 0.0916,-0.10511 0.16007,-0.0984 l 0.97394,0.0887 c 0.3269,0.0299 0.65091,-0.0877 0.88234,-0.32016 z m -9.41928,-1.2594 c -2.81103,1.2536 -5.072291,3.51779 -6.324871,6.3298 l 0.922846,1.84666 c 0.0675,0.13308 0.171646,0.24686 0.299889,0.32304 l 1.116658,0.67018 c 0.141753,0.0849 0.32497,-0.005 0.343287,-0.17068 0.0077,-0.0694 -0.0164,-0.13693 -0.06557,-0.18611 l -0.101255,-0.10029 c -0.274832,-0.27675 -0.431046,-0.65186 -0.431046,-1.04146 v -0.0502 c 0,-0.78496 0.571832,-1.45321 1.346166,-1.57471 l 1.770473,-0.28061 c 0.117645,-0.0183 0.229506,-0.0627 0.326896,-0.13115 l 1.579527,-1.09449 c 0.0974,-0.0665 0.17743,-0.15429 0.23722,-0.25652 l 0.85437,-1.49467 c 0.23432,-0.41081 0.6268,-0.70877 1.08772,-0.82448 l 0.34329,-0.0848 c 0.0974,-0.0251 0.17647,-0.0955 0.21215,-0.18997 0.0675,-0.18033 -0.0444,-0.37607 -0.23433,-0.40984 l -1.49853,-0.26518 c -0.23722,-0.0405 -0.46287,-0.13211 -0.66248,-0.26519 z m 5.0829,-2.02697 c -7.417485,0 -13.428835,6.01235 -13.428835,13.42884 0,7.41747 6.012337,13.42883 13.428835,13.42883 7.41747,0 13.42882,-6.01234 13.42882,-13.42883 0,-7.41748 -6.01234,-13.42884 -13.42882,-13.42884 z m -7.729025,12.66529 c 0.317268,-0.27194 0.806154,-0.17261 0.993227,0.20154 0.26903,0.53809 0.819657,0.87848 1.422348,0.87848 h 1.71453 c 0.29123,0 0.55834,0.15912 0.69623,0.41562 l 0.4619,0.85825 c 0.25941,0.48022 0.75988,0.78014 1.30569,0.78014 0.34908,0 0.60461,0.32689 0.51976,0.66536 l -0.081,0.32786 c -0.0318,0.12825 -0.0964,0.24686 -0.18611,0.34425 l -1.34135,1.45321 c -0.29604,0.32111 -0.45998,0.74155 -0.45998,1.17837 v 0.0887 c 0,0.21021 -0.0829,0.40984 -0.23047,0.55833 l -0.90258,0.90257 c -0.28641,0.28642 -0.44647,0.67406 -0.44647,1.07907 v 0.32785 c 0,0.23337 -0.22854,0.3973 -0.45033,0.32497 -0.0926,-0.0309 -0.16779,-0.10029 -0.20636,-0.18996 l -0.682726,-1.59207 c -0.04918,-0.11572 -0.07039,-0.243 -0.06172,-0.36933 l 0.216971,-2.93149 c 0.06172,-0.82159 -0.462868,-1.57375 -1.255518,-1.79941 l -0.743477,-0.21215 c -0.192861,-0.0559 -0.35679,-0.18129 -0.459979,-0.35294 l -0.549664,-0.91608 c -0.05786,-0.0974 -0.09547,-0.20637 -0.107037,-0.32015 l -0.054,-0.48215 c -0.02796,-0.26037 0.07329,-0.51688 0.271944,-0.68757 z"
       fill-rule="evenodd"
       id="path1-6"
       style="stroke-width:0.352778" /></g></svg>
